<svg fill="#000000" xmlns="http://www.w3.org/2000/svg"  viewBox="0 0 64 64" width="512px" height="512px"><path d="M 31 0 C 20.523438 0 12 8.523438 12 19 L 12 26 L 9 26 C 7.347656 26 6 27.347656 6 29 L 6 59 C 6 60.652344 7.347656 62 9 62 L 55 62 C 56.652344 62 58 60.652344 58 59 L 58 29 C 58 27.347656 56.652344 26 55 26 L 20 26 L 20 19 C 20 12.933594 24.933594 8 31 8 L 33 8 C 39.066406 8 44 12.933594 44 19 C 44 20.652344 45.347656 22 47 22 L 49 22 C 50.652344 22 52 20.652344 52 19 C 52 8.523438 43.476563 0 33 0 Z M 31 2 L 33 2 C 33.339844 2 33.667969 2.03125 34 2.050781 L 34 6.050781 C 33.667969 6.023438 33.339844 6 33 6 L 31 6 C 30.660156 6 30.332031 6.023438 30 6.050781 L 30 2.050781 C 30.332031 2.03125 30.660156 2 31 2 Z M 28 2.28125 L 28 6.363281 C 22.277344 7.722656 18 12.867188 18 19 L 18 26 L 14 26 L 14 19 C 14 10.652344 20.054688 3.703125 28 2.28125 Z M 36 2.28125 C 43.945313 3.703125 50 10.652344 50 19 C 50 19.550781 49.550781 20 49 20 L 47 20 C 46.449219 20 46 19.550781 46 19 C 46 12.867188 41.722656 7.722656 36 6.363281 Z M 9 28 L 55 28 C 55.550781 28 56 28.449219 56 29 L 56 59 C 56 59.550781 55.550781 60 55 60 L 9 60 C 8.449219 60 8 59.550781 8 59 L 8 29 C 8 28.449219 8.449219 28 9 28 Z M 32 32 C 26.484375 32 22 36.484375 22 42 C 22 47.515625 26.484375 52 32 52 C 37.515625 52 42 47.515625 42 42 C 42 36.484375 37.515625 32 32 32 Z M 32 34 C 36.410156 34 40 37.589844 40 42 C 40 46.410156 36.410156 50 32 50 C 27.589844 50 24 46.410156 24 42 C 24 37.589844 27.589844 34 32 34 Z M 32 35 C 31.445313 35 31 35.449219 31 36 L 31 37.832031 C 31 38.386719 31.445313 38.832031 32 38.832031 C 32.554688 38.832031 33 38.382813 33 37.832031 L 33 36 C 33 35.449219 32.554688 35 32 35 Z M 27.816406 36.734375 C 27.5625 36.734375 27.304688 36.828125 27.109375 37.027344 C 26.71875 37.414063 26.71875 38.046875 27.109375 38.4375 L 28.40625 39.734375 C 28.597656 39.929688 28.855469 40.03125 29.109375 40.03125 C 29.367188 40.03125 29.625 39.929688 29.816406 39.734375 C 30.210938 39.347656 30.210938 38.714844 29.816406 38.324219 L 28.523438 37.027344 C 28.328125 36.828125 28.070313 36.734375 27.816406 36.734375 Z M 36.300781 36.734375 C 36.046875 36.734375 35.792969 36.828125 35.59375 37.027344 L 34.296875 38.324219 C 33.90625 38.710938 33.90625 39.34375 34.296875 39.734375 C 34.492188 39.933594 34.75 40.03125 35.003906 40.03125 C 35.261719 40.03125 35.519531 39.929688 35.714844 39.734375 L 37.011719 38.4375 C 37.402344 38.050781 37.402344 37.417969 37.011719 37.027344 C 36.8125 36.828125 36.558594 36.734375 36.300781 36.734375 Z M 26 41 C 25.445313 41 25 41.449219 25 42 C 25 42.550781 25.445313 43 26 43 L 27.832031 43 C 28.386719 43 28.832031 42.550781 28.832031 42 C 28.832031 41.449219 28.386719 41 27.832031 41 Z M 36.167969 41 C 35.613281 41 35.167969 41.449219 35.167969 42 C 35.167969 42.550781 35.613281 43 36.167969 43 L 38 43 C 38.554688 43 39 42.550781 39 42 C 39 41.449219 38.554688 41 38 41 Z M 34.890625 43.804688 C 34.632813 43.804688 34.378906 43.902344 34.183594 44.097656 C 33.789063 44.488281 33.789063 45.121094 34.183594 45.511719 L 35.476563 46.808594 C 35.671875 47.003906 35.925781 47.101563 36.183594 47.101563 C 36.441406 47.101563 36.695313 47.003906 36.890625 46.808594 C 37.28125 46.417969 37.28125 45.785156 36.890625 45.394531 L 35.59375 44.097656 C 35.398438 43.902344 35.144531 43.804688 34.890625 43.804688 Z M 29.113281 43.921875 C 28.855469 43.921875 28.601563 44.019531 28.40625 44.214844 L 27.109375 45.511719 C 26.71875 45.902344 26.71875 46.535156 27.109375 46.925781 C 27.304688 47.121094 27.558594 47.21875 27.816406 47.21875 C 28.074219 47.21875 28.328125 47.121094 28.523438 46.925781 L 29.816406 45.628906 C 30.210938 45.238281 30.210938 44.605469 29.816406 44.214844 C 29.625 44.019531 29.371094 43.921875 29.113281 43.921875 Z M 32 45 C 31.445313 45 31 45.449219 31 46 L 31 47.832031 C 31 48.386719 31.445313 48.832031 32 48.832031 C 32.554688 48.832031 33 48.382813 33 47.832031 L 33 46 C 33 45.449219 32.554688 45 32 45 Z M 11 56 C 10.445313 56 10 56.449219 10 57 C 10 57.550781 10.445313 58 11 58 L 45 58 C 45.554688 58 46 57.550781 46 57 C 46 56.449219 45.554688 56 45 56 Z M 49 56 C 48.445313 56 48 56.449219 48 57 C 48 57.550781 48.445313 58 49 58 L 53 58 C 53.554688 58 54 57.550781 54 57 C 54 56.449219 53.554688 56 53 56 Z"/></svg>